<?xml version="1.0" encoding="UTF-8" standalone="no"?>
<!-- Created with Inkscape (http://www.inkscape.org/) -->

<svg
   xmlns:dc="http://purl.org/dc/elements/1.1/"
   xmlns:cc="http://creativecommons.org/ns#"
   xmlns:rdf="http://www.w3.org/1999/02/22-rdf-syntax-ns#"
   xmlns:svg="http://www.w3.org/2000/svg"
   xmlns="http://www.w3.org/2000/svg"
   xmlns:sodipodi="http://sodipodi.sourceforge.net/DTD/sodipodi-0.dtd"
   xmlns:inkscape="http://www.inkscape.org/namespaces/inkscape"
   width="64px"
   height="64px"
   id="svg2985"
   version="1.1"
   inkscape:version="0.48.5 r10040"
   sodipodi:docname="logo-cbw.svg">
  <defs
     id="defs2987">
    <inkscape:perspective
       sodipodi:type="inkscape:persp3d"
       inkscape:vp_x="0 : 32 : 1"
       inkscape:vp_y="0 : 1000 : 0"
       inkscape:vp_z="64 : 32 : 1"
       inkscape:persp3d-origin="32 : 21.333333 : 1"
       id="perspective3003" />
  </defs>
  <sodipodi:namedview
     id="base"
     pagecolor="#ffffff"
     bordercolor="#666666"
     borderopacity="1.0"
     inkscape:pageopacity="0.0"
     inkscape:pageshadow="2"
     inkscape:zoom="2"
     inkscape:cx="31.794287"
     inkscape:cy="40.218755"
     inkscape:current-layer="layer2"
     showgrid="true"
     inkscape:document-units="px"
     inkscape:grid-bbox="true"
     inkscape:window-width="1054"
     inkscape:window-height="542"
     inkscape:window-x="90"
     inkscape:window-y="141"
     inkscape:window-maximized="0" />
  <metadata
     id="metadata2990">
    <rdf:RDF>
      <cc:Work
         rdf:about="">
        <dc:format>image/svg+xml</dc:format>
        <dc:type
           rdf:resource="http://purl.org/dc/dcmitype/StillImage" />
        <dc:title></dc:title>
      </cc:Work>
    </rdf:RDF>
  </metadata>
  <g
     inkscape:groupmode="layer"
     id="layer2"
     inkscape:label="Layer">
    <path
       style="fill:#808080;stroke:#000000;stroke-opacity:0"
       d="M 32 1.75 C 15.569529 1.75 2.25 15.069529 2.25 31.5 C 2.25 47.930471 15.569529 61.25 32 61.25 C 48.430471 61.25 61.75 47.930471 61.75 31.5 C 61.75 15.069529 48.430471 1.75 32 1.75 z M 25.625 7.96875 C 25.625 7.96875 17.41185 21.440149 17.15625 30.34375 C 16.905448 39.080205 23.65625 54.1875 23.65625 54.1875 C 23.65625 54.1875 7.5574007 40.332399 7.90625 29.6875 C 8.2549189 19.04814 25.625 7.96875 25.625 7.96875 z M 35.6875 13.15625 C 35.6875 13.15625 29.110729 23.908369 28.90625 31.03125 C 28.705609 38.020416 34.09375 50.125 34.09375 50.125 C 34.09375 50.125 21.22092 39.01592 21.5 30.5 C 21.778936 21.98851 35.6875 13.15625 35.6875 13.15625 z M 47.0625 17.0625 C 47.0625 17.0625 41.788584 25.676695 41.625 31.375 C 41.464488 36.966331 45.78125 46.625 45.78125 46.625 C 45.78125 46.625 35.495485 37.750237 35.71875 30.9375 C 35.941897 24.128307 47.0625 17.0625 47.0625 17.0625 z M 57.9375 20.65625 C 57.9375 20.65625 53.724618 27.535106 53.59375 32.09375 C 53.46534 36.566816 56.90625 44.3125 56.90625 44.3125 C 56.90625 44.3125 48.665139 37.231438 48.84375 31.78125 C 49.022269 26.333895 57.9375 20.65625 57.9375 20.65625 z "
       id="path3021" />
  </g>
  <g
     id="layer1"
     inkscape:label="Layer 1"
     inkscape:groupmode="layer" />
</svg>
